<svg width="50" height="50" viewBox="0 0 50 50" fill="none" xmlns="http://www.w3.org/2000/svg">
<circle cx="25" cy="25" r="25" fill="#181818"/>
<path d="M14.1665 24.25C13.7523 24.25 13.4165 24.5858 13.4165 25C13.4165 25.4142 13.7523 25.75 14.1665 25.75V24.25ZM35.5302 25.5303C35.8231 25.2374 35.8231 24.7626 35.5302 24.4697L30.7572 19.6967C30.4643 19.4038 29.9894 19.4038 29.6965 19.6967C29.4036 19.9896 29.4036 20.4645 29.6965 20.7574L33.9392 25L29.6965 29.2426C29.4036 29.5355 29.4036 30.0104 29.6965 30.3033C29.9894 30.5962 30.4643 30.5962 30.7572 30.3033L35.5302 25.5303ZM14.1665 25.75H34.9998V24.25H14.1665V25.75Z" fill="white"/>
</svg>
